# xmcd
#
# Track frame offsets:
#	150
#	30983
#	72498
#	89840
#	120299
#	170338
#	292508
#
# Disc length: 4723 seconds
#
# Revision: 1
# Processed by: cddbd v1.5.2PL0 Copyright (c) Steve Scherf et al.
# Submitted via: audiograbber 1.83.01
#
DISCID=53127107
DTITLE=Grateful Dead - 72-08-24 Berkeley Community Theatre, Berkeley CA
DYEAR=1900
DGENRE=
TTITLE0=Casey Jones
TTITLE1=Mississippi Half-Step
TTITLE2=Mexicali Blues
TTITLE3=Brown Eyed Women
TTITLE4=Truckin'
TTITLE5=Dark Star
TTITLE6=Morning Dew
EXTD=
EXTT0=
EXTT1=
EXTT2=
EXTT3=
EXTT4=
EXTT5=
EXTT6=
PLAYORDER=
